{
    "asset" : {
        "generator" : "Khronos glTF Blender I/O v3.2.43",
        "version" : "2.0"
    },
    "scene" : 0,
    "scenes" : [
        {
            "name" : "Scene",
            "nodes" : [
                0,
                2,
                4,
                6,
                8
            ]
        }
    ],
    "nodes" : [
        {
            "mesh" : 0,
            "name" : "Plane",
            "scale" : [
                0.6404599547386169,
                0.6404599547386169,
                0.6404599547386169
            ],
            "translation" : [
                0.003176318248733878,
                0.006532184313982725,
                -0.0009021032601594925
            ]
        },
        {
            "mesh" : 1,
            "name" : "Icing"
        },
        {
            "children" : [
                1
            ],
            "mesh" : 2,
            "name" : "Donut",
            "translation" : [
                -0.02684507519006729,
                0.032558783888816833,
                -0.3483501672744751
            ]
        },
        {
            "mesh" : 3,
            "name" : "Icing.002"
        },
        {
            "children" : [
                3
            ],
            "mesh" : 4,
            "name" : "Donut.002",
            "translation" : [
                -0.02684507519006729,
                0.032558783888816833,
                0.3397713601589203
            ]
        },
        {
            "mesh" : 5,
            "name" : "Icing.003"
        },
        {
            "children" : [
                5
            ],
            "mesh" : 6,
            "name" : "Donut.003",
            "translation" : [
                0.3974432349205017,
                0.032558783888816833,
                -0.005089491605758667
            ]
        },
        {
            "mesh" : 7,
            "name" : "Icing.004"
        },
        {
            "children" : [
                7
            ],
            "mesh" : 8,
            "name" : "Donut.004",
            "translation" : [
                -0.38122501969337463,
                0.032558783888816833,
                -0.005089491605758667
            ]
        }
    ],
    "materials" : [
        {
            "doubleSided" : true,
            "name" : "Material.001",
            "pbrMetallicRoughness" : {
                "baseColorFactor" : [
                    0.8522537350654602,
                    0.9710973501205444,
                    1,
                    1
                ],
                "metallicFactor" : 0,
                "roughnessFactor" : 0.5
            }
        },
        {
            "doubleSided" : true,
            "name" : "Material",
            "pbrMetallicRoughness" : {
                "baseColorFactor" : [
                    0.7288988828659058,
                    0.8000000715255737,
                    0.7040727138519287,
                    1
                ],
                "metallicFactor" : 0,
                "roughnessFactor" : 0.5
            }
        },
        {
            "doubleSided" : true,
            "name" : "Material.002",
            "pbrMetallicRoughness" : {
                "baseColorFactor" : [
                    0.3139888048171997,
                    0.05448019132018089,
                    0,
                    1
                ],
                "metallicFactor" : 0,
                "roughnessFactor" : 0.5
            }
        },
        {
            "doubleSided" : true,
            "name" : "Material.003",
            "pbrMetallicRoughness" : {
                "baseColorFactor" : [
                    0.7944414019584656,
                    0.3036573827266693,
                    0.8000000715255737,
                    1
                ],
                "metallicFactor" : 0,
                "roughnessFactor" : 0.5
            }
        },
        {
            "doubleSided" : true,
            "name" : "Material.005",
            "pbrMetallicRoughness" : {
                "baseColorFactor" : [
                    0.003721041837707162,
                    0.7325723767280579,
                    0.8000000715255737,
                    1
                ],
                "metallicFactor" : 0,
                "roughnessFactor" : 0.5
            }
        },
        {
            "doubleSided" : true,
            "name" : "Material.004",
            "pbrMetallicRoughness" : {
                "baseColorFactor" : [
                    0.12825416028499603,
                    0.8000000715255737,
                    0.2508300244808197,
                    1
                ],
                "metallicFactor" : 0,
                "roughnessFactor" : 0.5
            }
        }
    ],
    "meshes" : [
        {
            "name" : "Plane",
            "primitives" : [
                {
                    "attributes" : {
                        "POSITION" : 0,
                        "NORMAL" : 1,
                        "TEXCOORD_0" : 2
                    },
                    "indices" : 3,
                    "material" : 0
                }
            ]
        },
        {
            "name" : "Mesh",
            "primitives" : [
                {
                    "attributes" : {
                        "POSITION" : 4,
                        "NORMAL" : 5,
                        "TEXCOORD_0" : 6
                    },
                    "indices" : 7,
                    "material" : 1
                }
            ]
        },
        {
            "name" : "Mesh",
            "primitives" : [
                {
                    "attributes" : {
                        "POSITION" : 8,
                        "NORMAL" : 9,
                        "TEXCOORD_0" : 10
                    },
                    "indices" : 11,
                    "material" : 2
                }
            ]
        },
        {
            "name" : "Mesh",
            "primitives" : [
                {
                    "attributes" : {
                        "POSITION" : 12,
                        "NORMAL" : 13,
                        "TEXCOORD_0" : 14
                    },
                    "indices" : 7,
                    "material" : 3
                }
            ]
        },
        {
            "name" : "Mesh",
            "primitives" : [
                {
                    "attributes" : {
                        "POSITION" : 15,
                        "NORMAL" : 16,
                        "TEXCOORD_0" : 17
                    },
                    "indices" : 11,
                    "material" : 2
                }
            ]
        },
        {
            "name" : "Mesh",
            "primitives" : [
                {
                    "attributes" : {
                        "POSITION" : 18,
                        "NORMAL" : 19,
                        "TEXCOORD_0" : 20
                    },
                    "indices" : 7,
                    "material" : 4
                }
            ]
        },
        {
            "name" : "Mesh",
            "primitives" : [
                {
                    "attributes" : {
                        "POSITION" : 21,
                        "NORMAL" : 22,
                        "TEXCOORD_0" : 23
                    },
                    "indices" : 11,
                    "material" : 2
                }
            ]
        },
        {
            "name" : "Mesh",
            "primitives" : [
                {
                    "attributes" : {
                        "POSITION" : 24,
                        "NORMAL" : 25,
                        "TEXCOORD_0" : 26
                    },
                    "indices" : 7,
                    "material" : 5
                }
            ]
        },
        {
            "name" : "Mesh",
            "primitives" : [
                {
                    "attributes" : {
                        "POSITION" : 27,
                        "NORMAL" : 28,
                        "TEXCOORD_0" : 29
                    },
                    "indices" : 11,
                    "material" : 2
                }
            ]
        }
    ],
    "accessors" : [
        {
            "bufferView" : 0,
            "componentType" : 5126,
            "count" : 4,
            "max" : [
                0.7300000190734863,
                0,
                0.7300000190734863
            ],
            "min" : [
                -0.7300000190734863,
                0,
                -0.7300000190734863
            ],
            "type" : "VEC3"
        },
        {
            "bufferView" : 1,
            "componentType" : 5126,
            "count" : 4,
            "type" : "VEC3"
        },
        {
            "bufferView" : 2,
            "componentType" : 5126,
            "count" : 4,
            "type" : "VEC2"
        },
        {
            "bufferView" : 3,
            "componentType" : 5123,
            "count" : 6,
            "type" : "SCALAR"
        },
        {
            "bufferView" : 4,
            "componentType" : 5126,
            "count" : 1313,
            "max" : [
                0.07200794667005539,
                0.028903793543577194,
                0.07275480777025223
            ],
            "min" : [
                -0.07299873232841492,
                0.002690285211429,
                -0.0721193328499794
            ],
            "type" : "VEC3"
        },
        {
            "bufferView" : 5,
            "componentType" : 5126,
            "count" : 1313,
            "type" : "VEC3"
        },
        {
            "bufferView" : 6,
            "componentType" : 5126,
            "count" : 1313,
            "type" : "VEC2"
        },
        {
            "bufferView" : 7,
            "componentType" : 5123,
            "count" : 6720,
            "type" : "SCALAR"
        },
        {
            "bufferView" : 8,
            "componentType" : 5126,
            "count" : 3056,
            "max" : [
                0.07160452753305435,
                0.025123300030827522,
                0.06931949406862259
            ],
            "min" : [
                -0.07217288762331009,
                -0.024854974821209908,
                -0.0717848613858223
            ],
            "type" : "VEC3"
        },
        {
            "bufferView" : 9,
            "componentType" : 5126,
            "count" : 3056,
            "type" : "VEC3"
        },
        {
            "bufferView" : 10,
            "componentType" : 5126,
            "count" : 3056,
            "type" : "VEC2"
        },
        {
            "bufferView" : 11,
            "componentType" : 5123,
            "count" : 16128,
            "type" : "SCALAR"
        },
        {
            "bufferView" : 12,
            "componentType" : 5126,
            "count" : 1313,
            "max" : [
                0.07200794667005539,
                0.028903793543577194,
                0.07275480777025223
            ],
            "min" : [
                -0.07299873232841492,
                0.002690285211429,
                -0.0721193328499794
            ],
            "type" : "VEC3"
        },
        {
            "bufferView" : 13,
            "componentType" : 5126,
            "count" : 1313,
            "type" : "VEC3"
        },
        {
            "bufferView" : 14,
            "componentType" : 5126,
            "count" : 1313,
            "type" : "VEC2"
        },
        {
            "bufferView" : 15,
            "componentType" : 5126,
            "count" : 3056,
            "max" : [
                0.07160452753305435,
                0.025123300030827522,
                0.06931949406862259
            ],
            "min" : [
                -0.07217288762331009,
                -0.024854974821209908,
                -0.0717848613858223
            ],
            "type" : "VEC3"
        },
        {
            "bufferView" : 16,
            "componentType" : 5126,
            "count" : 3056,
            "type" : "VEC3"
        },
        {
            "bufferView" : 17,
            "componentType" : 5126,
            "count" : 3056,
            "type" : "VEC2"
        },
        {
            "bufferView" : 18,
            "componentType" : 5126,
            "count" : 1313,
            "max" : [
                0.07200794667005539,
                0.028903793543577194,
                0.07275480777025223
            ],
            "min" : [
                -0.07299873232841492,
                0.002690285211429,
                -0.0721193328499794
            ],
            "type" : "VEC3"
        },
        {
            "bufferView" : 19,
            "componentType" : 5126,
            "count" : 1313,
            "type" : "VEC3"
        },
        {
            "bufferView" : 20,
            "componentType" : 5126,
            "count" : 1313,
            "type" : "VEC2"
        },
        {
            "bufferView" : 21,
            "componentType" : 5126,
            "count" : 3056,
            "max" : [
                0.07160452753305435,
                0.025123300030827522,
                0.06931949406862259
            ],
            "min" : [
                -0.07217288762331009,
                -0.024854974821209908,
                -0.0717848613858223
            ],
            "type" : "VEC3"
        },
        {
            "bufferView" : 22,
            "componentType" : 5126,
            "count" : 3056,
            "type" : "VEC3"
        },
        {
            "bufferView" : 23,
            "componentType" : 5126,
            "count" : 3056,
            "type" : "VEC2"
        },
        {
            "bufferView" : 24,
            "componentType" : 5126,
            "count" : 1313,
            "max" : [
                0.07200794667005539,
                0.028903793543577194,
                0.07275480777025223
            ],
            "min" : [
                -0.07299873232841492,
                0.002690285211429,
                -0.0721193328499794
            ],
            "type" : "VEC3"
        },
        {
            "bufferView" : 25,
            "componentType" : 5126,
            "count" : 1313,
            "type" : "VEC3"
        },
        {
            "bufferView" : 26,
            "componentType" : 5126,
            "count" : 1313,
            "type" : "VEC2"
        },
        {
            "bufferView" : 27,
            "componentType" : 5126,
            "count" : 3056,
            "max" : [
                0.07160452753305435,
                0.025123300030827522,
                0.06931949406862259
            ],
            "min" : [
                -0.07217288762331009,
                -0.024854974821209908,
                -0.0717848613858223
            ],
            "type" : "VEC3"
        },
        {
            "bufferView" : 28,
            "componentType" : 5126,
            "count" : 3056,
            "type" : "VEC3"
        },
        {
            "bufferView" : 29,
            "componentType" : 5126,
            "count" : 3056,
            "type" : "VEC2"
        }
    ],
    "bufferViews" : [
        {
            "buffer" : 0,
            "byteLength" : 48,
            "byteOffset" : 0
        },
        {
            "buffer" : 0,
            "byteLength" : 48,
            "byteOffset" : 48
        },
        {
            "buffer" : 0,
            "byteLength" : 32,
            "byteOffset" : 96
        },
        {
            "buffer" : 0,
            "byteLength" : 12,
            "byteOffset" : 128
        },
        {
            "buffer" : 0,
            "byteLength" : 15756,
            "byteOffset" : 140
        },
        {
            "buffer" : 0,
            "byteLength" : 15756,
            "byteOffset" : 15896
        },
        {
            "buffer" : 0,
            "byteLength" : 10504,
            "byteOffset" : 31652
        },
        {
            "buffer" : 0,
            "byteLength" : 13440,
            "byteOffset" : 42156
        },
        {
            "buffer" : 0,
            "byteLength" : 36672,
            "byteOffset" : 55596
        },
        {
            "buffer" : 0,
            "byteLength" : 36672,
            "byteOffset" : 92268
        },
        {
            "buffer" : 0,
            "byteLength" : 24448,
            "byteOffset" : 128940
        },
        {
            "buffer" : 0,
            "byteLength" : 32256,
            "byteOffset" : 153388
        },
        {
            "buffer" : 0,
            "byteLength" : 15756,
            "byteOffset" : 185644
        },
        {
            "buffer" : 0,
            "byteLength" : 15756,
            "byteOffset" : 201400
        },
        {
            "buffer" : 0,
            "byteLength" : 10504,
            "byteOffset" : 217156
        },
        {
            "buffer" : 0,
            "byteLength" : 36672,
            "byteOffset" : 227660
        },
        {
            "buffer" : 0,
            "byteLength" : 36672,
            "byteOffset" : 264332
        },
        {
            "buffer" : 0,
            "byteLength" : 24448,
            "byteOffset" : 301004
        },
        {
            "buffer" : 0,
            "byteLength" : 15756,
            "byteOffset" : 325452
        },
        {
            "buffer" : 0,
            "byteLength" : 15756,
            "byteOffset" : 341208
        },
        {
            "buffer" : 0,
            "byteLength" : 10504,
            "byteOffset" : 356964
        },
        {
            "buffer" : 0,
            "byteLength" : 36672,
            "byteOffset" : 367468
        },
        {
            "buffer" : 0,
            "byteLength" : 36672,
            "byteOffset" : 404140
        },
        {
            "buffer" : 0,
            "byteLength" : 24448,
            "byteOffset" : 440812
        },
        {
            "buffer" : 0,
            "byteLength" : 15756,
            "byteOffset" : 465260
        },
        {
            "buffer" : 0,
            "byteLength" : 15756,
            "byteOffset" : 481016
        },
        {
            "buffer" : 0,
            "byteLength" : 10504,
            "byteOffset" : 496772
        },
        {
            "buffer" : 0,
            "byteLength" : 36672,
            "byteOffset" : 507276
        },
        {
            "buffer" : 0,
            "byteLength" : 36672,
            "byteOffset" : 543948
        },
        {
            "buffer" : 0,
            "byteLength" : 24448,
            "byteOffset" : 580620
        }
    ],
    "buffers" : [
        {
            "byteLength" : 605068,
            "uri" : "data:application/octet-stream;base64,"
        }
    ]
}
