{
    "asset" : {
        "generator" : "Khronos glTF Blender I/O v3.2.43",
        "version" : "2.0"
    },
    "scene" : 0,
    "scenes" : [
        {
            "name" : "Scene",
            "nodes" : [
                0
            ]
        }
    ],
    "nodes" : [
        {
            "mesh" : 0,
            "name" : "Swings.001",
            "rotation" : [
                0,
                0,
                -0.7071067094802856,
                0.7071068286895752
            ],
            "scale" : [
                0.8380196690559387,
                0.10654804110527039,
                8.714943885803223
            ],
            "translation" : [
                -72.52119445800781,
                15.068492889404297,
                -37.39677429199219
            ]
        }
    ],
    "materials" : [
        {
            "doubleSided" : true,
            "name" : "Yellow paint.001",
            "pbrMetallicRoughness" : {
                "baseColorFactor" : [
                    0.8509272336959839,
                    0.6759874224662781,
                    0.1314982771873474,
                    1
                ],
                "metallicFactor" : 0,
                "roughnessFactor" : 0.5
            }
        },
        {
            "doubleSided" : true,
            "name" : "Red paint.001",
            "pbrMetallicRoughness" : {
                "baseColorFactor" : [
                    0.4125427305698395,
                    0.03310476616024971,
                    0.023153377696871758,
                    1
                ],
                "metallicFactor" : 0,
                "roughnessFactor" : 0.5
            }
        },
        {
            "doubleSided" : true,
            "name" : "blue paint.001",
            "pbrMetallicRoughness" : {
                "baseColorFactor" : [
                    0.05448029562830925,
                    0.16513225436210632,
                    0.485150009393692,
                    1
                ],
                "metallicFactor" : 0,
                "roughnessFactor" : 0.5
            }
        }
    ],
    "meshes" : [
        {
            "name" : "swing.001",
            "primitives" : [
                {
                    "attributes" : {
                        "POSITION" : 0,
                        "NORMAL" : 1
                    },
                    "indices" : 2,
                    "material" : 0
                },
                {
                    "attributes" : {
                        "POSITION" : 3,
                        "NORMAL" : 4
                    },
                    "indices" : 5,
                    "material" : 1
                },
                {
                    "attributes" : {
                        "POSITION" : 6,
                        "NORMAL" : 7
                    },
                    "indices" : 8,
                    "material" : 2
                }
            ]
        }
    ],
    "accessors" : [
        {
            "bufferView" : 0,
            "componentType" : 5126,
            "count" : 7388,
            "max" : [
                14.887415885925293,
                162.15457153320312,
                0.05752698704600334
            ],
            "min" : [
                -2.853656768798828,
                -161.2816162109375,
                -0.057558197528123856
            ],
            "type" : "VEC3"
        },
        {
            "bufferView" : 1,
            "componentType" : 5126,
            "count" : 7388,
            "type" : "VEC3"
        },
        {
            "bufferView" : 2,
            "componentType" : 5123,
            "count" : 11028,
            "type" : "SCALAR"
        },
        {
            "bufferView" : 3,
            "componentType" : 5126,
            "count" : 72,
            "max" : [
                15.07357406616211,
                135.6875,
                0.11663702875375748
            ],
            "min" : [
                14.701251029968262,
                -137.1972198486328,
                -0.11666830629110336
            ],
            "type" : "VEC3"
        },
        {
            "bufferView" : 4,
            "componentType" : 5126,
            "count" : 72,
            "type" : "VEC3"
        },
        {
            "bufferView" : 5,
            "componentType" : 5123,
            "count" : 108,
            "type" : "SCALAR"
        },
        {
            "bufferView" : 6,
            "componentType" : 5126,
            "count" : 288,
            "max" : [
                18.012500762939453,
                163.62286376953125,
                1.1289106607437134
            ],
            "min" : [
                -2.8033084869384766,
                -163.60072326660156,
                -1.1289418935775757
            ],
            "type" : "VEC3"
        },
        {
            "bufferView" : 7,
            "componentType" : 5126,
            "count" : 288,
            "type" : "VEC3"
        },
        {
            "bufferView" : 8,
            "componentType" : 5123,
            "count" : 672,
            "type" : "SCALAR"
        }
    ],
    "bufferViews" : [
        {
            "buffer" : 0,
            "byteLength" : 88656,
            "byteOffset" : 0
        },
        {
            "buffer" : 0,
            "byteLength" : 88656,
            "byteOffset" : 88656
        },
        {
            "buffer" : 0,
            "byteLength" : 22056,
            "byteOffset" : 177312
        },
        {
            "buffer" : 0,
            "byteLength" : 864,
            "byteOffset" : 199368
        },
        {
            "buffer" : 0,
            "byteLength" : 864,
            "byteOffset" : 200232
        },
        {
            "buffer" : 0,
            "byteLength" : 216,
            "byteOffset" : 201096
        },
        {
            "buffer" : 0,
            "byteLength" : 3456,
            "byteOffset" : 201312
        },
        {
            "buffer" : 0,
            "byteLength" : 3456,
            "byteOffset" : 204768
        },
        {
            "buffer" : 0,
            "byteLength" : 1344,
            "byteOffset" : 208224
        }
    ],
    "buffers" : [
        {
            "byteLength" : 209568,
            "uri" : "data:application/octet-stream;base64,"
        }
    ]
}
