{
    "asset" : {
        "generator" : "Khronos glTF Blender I/O v3.2.43",
        "version" : "2.0"
    },
    "scene" : 0,
    "scenes" : [
        {
            "name" : "Scene",
            "nodes" : [
                0,
                2
            ]
        }
    ],
    "nodes" : [
        {
            "mesh" : 0,
            "name" : "Plane",
            "translation" : [
                0.003176318248733878,
                0.006532184313982725,
                -0.0009021032601594925
            ]
        },
        {
            "mesh" : 1,
            "name" : "Icing"
        },
        {
            "children" : [
                1
            ],
            "mesh" : 2,
            "name" : "Donut",
            "translation" : [
                -0.02684507519006729,
                0.032558783888816833,
                -0.2963395416736603
            ]
        }
    ],
    "materials" : [
        {
            "doubleSided" : true,
            "name" : "Material.001",
            "pbrMetallicRoughness" : {
                "baseColorFactor" : [
                    0.02021528035402298,
                    0.5306695699691772,
                    0.8000000715255737,
                    1
                ],
                "metallicFactor" : 0,
                "roughnessFactor" : 0.5
            }
        }
    ],
    "meshes" : [
        {
            "name" : "Plane",
            "primitives" : [
                {
                    "attributes" : {
                        "POSITION" : 0,
                        "NORMAL" : 1,
                        "TEXCOORD_0" : 2
                    },
                    "indices" : 3,
                    "material" : 0
                }
            ]
        },
        {
            "name" : "Mesh",
            "primitives" : [
                {
                    "attributes" : {
                        "POSITION" : 4,
                        "NORMAL" : 5,
                        "TEXCOORD_0" : 6
                    },
                    "indices" : 7
                }
            ]
        },
        {
            "name" : "Mesh",
            "primitives" : [
                {
                    "attributes" : {
                        "POSITION" : 8,
                        "NORMAL" : 9,
                        "TEXCOORD_0" : 10
                    },
                    "indices" : 11
                }
            ]
        }
    ],
    "accessors" : [
        {
            "bufferView" : 0,
            "componentType" : 5126,
            "count" : 4,
            "max" : [
                0.7300000190734863,
                0,
                0.7300000190734863
            ],
            "min" : [
                -0.7300000190734863,
                0,
                -0.7300000190734863
            ],
            "type" : "VEC3"
        },
        {
            "bufferView" : 1,
            "componentType" : 5126,
            "count" : 4,
            "type" : "VEC3"
        },
        {
            "bufferView" : 2,
            "componentType" : 5126,
            "count" : 4,
            "type" : "VEC2"
        },
        {
            "bufferView" : 3,
            "componentType" : 5123,
            "count" : 6,
            "type" : "SCALAR"
        },
        {
            "bufferView" : 4,
            "componentType" : 5126,
            "count" : 1313,
            "max" : [
                0.07200794667005539,
                0.028903793543577194,
                0.07275480777025223
            ],
            "min" : [
                -0.07299873232841492,
                0.002690285211429,
                -0.0721193328499794
            ],
            "type" : "VEC3"
        },
        {
            "bufferView" : 5,
            "componentType" : 5126,
            "count" : 1313,
            "type" : "VEC3"
        },
        {
            "bufferView" : 6,
            "componentType" : 5126,
            "count" : 1313,
            "type" : "VEC2"
        },
        {
            "bufferView" : 7,
            "componentType" : 5123,
            "count" : 6720,
            "type" : "SCALAR"
        },
        {
            "bufferView" : 8,
            "componentType" : 5126,
            "count" : 3056,
            "max" : [
                0.07160452753305435,
                0.025123300030827522,
                0.06931949406862259
            ],
            "min" : [
                -0.07217288762331009,
                -0.024854974821209908,
                -0.0717848613858223
            ],
            "type" : "VEC3"
        },
        {
            "bufferView" : 9,
            "componentType" : 5126,
            "count" : 3056,
            "type" : "VEC3"
        },
        {
            "bufferView" : 10,
            "componentType" : 5126,
            "count" : 3056,
            "type" : "VEC2"
        },
        {
            "bufferView" : 11,
            "componentType" : 5123,
            "count" : 16128,
            "type" : "SCALAR"
        }
    ],
    "bufferViews" : [
        {
            "buffer" : 0,
            "byteLength" : 48,
            "byteOffset" : 0
        },
        {
            "buffer" : 0,
            "byteLength" : 48,
            "byteOffset" : 48
        },
        {
            "buffer" : 0,
            "byteLength" : 32,
            "byteOffset" : 96
        },
        {
            "buffer" : 0,
            "byteLength" : 12,
            "byteOffset" : 128
        },
        {
            "buffer" : 0,
            "byteLength" : 15756,
            "byteOffset" : 140
        },
        {
            "buffer" : 0,
            "byteLength" : 15756,
            "byteOffset" : 15896
        },
        {
            "buffer" : 0,
            "byteLength" : 10504,
            "byteOffset" : 31652
        },
        {
            "buffer" : 0,
            "byteLength" : 13440,
            "byteOffset" : 42156
        },
        {
            "buffer" : 0,
            "byteLength" : 36672,
            "byteOffset" : 55596
        },
        {
            "buffer" : 0,
            "byteLength" : 36672,
            "byteOffset" : 92268
        },
        {
            "buffer" : 0,
            "byteLength" : 24448,
            "byteOffset" : 128940
        },
        {
            "buffer" : 0,
            "byteLength" : 32256,
            "byteOffset" : 153388
        }
    ],
    "buffers" : [
        {
            "byteLength" : 185644,
            "uri" : "data:application/octet-stream;base64,"
        }
    ]
}
